STARTFONT 2.1
COMMENT  
COMMENT  Public domain font.  Share and enjoy.
COMMENT  
COMMENT  WARNING:  This bdf file was generated from a font server using
COMMENT  fstobdf.  The resulting font is subject to the same copyright,
COMMENT  license, and trademark restrictions as the original font.  The
COMMENT  authors and distributors of fstobdf disclaim all liability for
COMMENT  misuse of the program or its output.
COMMENT  
FONT -Misc-Fixed-Bold-R-Normal--15-140-75-75-C-90-ISO8859-7
SIZE 14 75 75
FONTBOUNDINGBOX 9 15 0 -3
STARTPROPERTIES 25
FONTNAME_REGISTRY ""
FOUNDRY "Misc"
FAMILY_NAME "Fixed"
WEIGHT_NAME "Bold"
SLANT "R"
SETWIDTH_NAME "Normal"
ADD_STYLE_NAME ""
PIXEL_SIZE 15
POINT_SIZE 140
RESOLUTION_X 75
RESOLUTION_Y 75
SPACING "C"
AVERAGE_WIDTH 90
CHARSET_REGISTRY "ISO8859"
CHARSET_ENCODING "7"
COPYRIGHT "Public domain font.  Share and enjoy."
X_HEIGHT 7
CAP_HEIGHT 10
FONT "-Misc-Fixed-Bold-R-Normal--15-140-75-75-C-90-ISO8859-7"
WEIGHT 10
RESOLUTION 103
QUAD_WIDTH 9
DEFAULT_CHAR 0
FONT_ASCENT 12
FONT_DESCENT 3
ENDPROPERTIES
CHARS 217
STARTCHAR C000
ENCODING 0
SWIDTH 617 0
DWIDTH 9 0
BBX 8 11 0 0
BITMAP
db
db
00
c3
c3
00
c3
c3
00
db
db
ENDCHAR
STARTCHAR C001
ENCODING 1
SWIDTH 617 0
DWIDTH 9 0
BBX 9 9 0 0
BITMAP
0800
1c00
3e00
7f00
ff80
7f00
3e00
1c00
0800
ENDCHAR
STARTCHAR C002
ENCODING 2
SWIDTH 617 0
DWIDTH 9 0
BBX 9 15 0 -3
BITMAP
aa80
5500
aa80
5500
aa80
5500
aa80
5500
aa80
5500
aa80
5500
aa80
5500
aa80
ENDCHAR
STARTCHAR C003
ENCODING 3
SWIDTH 617 0
DWIDTH 9 0
BBX 8 10 0 0
BITMAP
d8
d8
f8
d8
d8
0f
06
06
06
06
ENDCHAR
STARTCHAR C004
ENCODING 4
SWIDTH 617 0
DWIDTH 9 0
BBX 8 10 0 0
BITMAP
f0
c0
e0
c0
c0
0f
0c
0e
0c
0c
ENDCHAR
STARTCHAR C005
ENCODING 5
SWIDTH 617 0
DWIDTH 9 0
BBX 8 10 0 0
BITMAP
70
c0
c0
c0
70
1e
1b
1e
1b
1b
ENDCHAR
STARTCHAR C006
ENCODING 6
SWIDTH 617 0
DWIDTH 9 0
BBX 8 10 0 0
BITMAP
c0
c0
c0
c0
f0
0f
0c
0e
0c
0c
ENDCHAR
STARTCHAR C007
ENCODING 7
SWIDTH 617 0
DWIDTH 9 0
BBX 6 4 2 6
BITMAP
78
cc
cc
78
ENDCHAR
STARTCHAR C010
ENCODING 8
SWIDTH 617 0
DWIDTH 9 0
BBX 8 10 0 0
BITMAP
18
18
18
ff
ff
18
18
18
ff
ff
ENDCHAR
STARTCHAR C011
ENCODING 9
SWIDTH 617 0
DWIDTH 9 0
BBX 8 11 0 0
BITMAP
f0
d8
d8
d8
d8
00
18
18
18
18
1f
ENDCHAR
STARTCHAR C012
ENCODING 10
SWIDTH 617 0
DWIDTH 9 0
BBX 8 10 0 0
BITMAP
d8
d8
d8
70
20
0f
06
06
06
06
ENDCHAR
STARTCHAR C013
ENCODING 11
SWIDTH 617 0
DWIDTH 9 0
BBX 6 8 0 4
BITMAP
0c
0c
0c
0c
0c
0c
fc
fc
ENDCHAR
STARTCHAR C014
ENCODING 12
SWIDTH 617 0
DWIDTH 9 0
BBX 6 9 0 -3
BITMAP
fc
fc
0c
0c
0c
0c
0c
0c
0c
ENDCHAR
STARTCHAR C015
ENCODING 13
SWIDTH 617 0
DWIDTH 9 0
BBX 5 9 4 -3
BITMAP
f8
f8
c0
c0
c0
c0
c0
c0
c0
ENDCHAR
STARTCHAR C016
ENCODING 14
SWIDTH 617 0
DWIDTH 9 0
BBX 5 8 4 4
BITMAP
c0
c0
c0
c0
c0
c0
f8
f8
ENDCHAR
STARTCHAR C017
ENCODING 15
SWIDTH 617 0
DWIDTH 9 0
BBX 9 15 0 -3
BITMAP
0c00
0c00
0c00
0c00
0c00
0c00
ff80
ff80
0c00
0c00
0c00
0c00
0c00
0c00
0c00
ENDCHAR
STARTCHAR C020
ENCODING 16
SWIDTH 617 0
DWIDTH 9 0
BBX 9 2 0 10
BITMAP
ff80
ff80
ENDCHAR
STARTCHAR C021
ENCODING 17
SWIDTH 617 0
DWIDTH 9 0
BBX 9 2 0 7
BITMAP
ff80
ff80
ENDCHAR
STARTCHAR C022
ENCODING 18
SWIDTH 617 0
DWIDTH 9 0
BBX 9 2 0 4
BITMAP
ff80
ff80
ENDCHAR
STARTCHAR C023
ENCODING 19
SWIDTH 617 0
DWIDTH 9 0
BBX 9 2 0 0
BITMAP
ff80
ff80
ENDCHAR
STARTCHAR C024
ENCODING 20
SWIDTH 617 0
DWIDTH 9 0
BBX 9 2 0 -3
BITMAP
ff80
ff80
ENDCHAR
STARTCHAR C025
ENCODING 21
SWIDTH 617 0
DWIDTH 9 0
BBX 5 15 4 -3
BITMAP
c0
c0
c0
c0
c0
c0
f8
f8
c0
c0
c0
c0
c0
c0
c0
ENDCHAR
STARTCHAR C026
ENCODING 22
SWIDTH 617 0
DWIDTH 9 0
BBX 6 15 0 -3
BITMAP
0c
0c
0c
0c
0c
0c
fc
fc
0c
0c
0c
0c
0c
0c
0c
ENDCHAR
STARTCHAR C027
ENCODING 23
SWIDTH 617 0
DWIDTH 9 0
BBX 9 8 0 4
BITMAP
0c00
0c00
0c00
0c00
0c00
0c00
ff80
ff80
ENDCHAR
STARTCHAR C030
ENCODING 24
SWIDTH 617 0
DWIDTH 9 0
BBX 9 9 0 -3
BITMAP
ff80
ff80
0c00
0c00
0c00
0c00
0c00
0c00
0c00
ENDCHAR
STARTCHAR C031
ENCODING 25
SWIDTH 617 0
DWIDTH 9 0
BBX 2 15 4 -3
BITMAP
c0
c0
c0
c0
c0
c0
c0
c0
c0
c0
c0
c0
c0
c0
c0
ENDCHAR
STARTCHAR C032
ENCODING 26
SWIDTH 617 0
DWIDTH 9 0
BBX 8 9 0 0
BITMAP
07
1c
70
c0
70
1c
07
00
ff
ENDCHAR
STARTCHAR C033
ENCODING 27
SWIDTH 617 0
DWIDTH 9 0
BBX 8 9 0 0
BITMAP
e0
38
0e
03
0e
38
e0
00
ff
ENDCHAR
STARTCHAR C034
ENCODING 28
SWIDTH 617 0
DWIDTH 9 0
BBX 8 7 0 0
BITMAP
ff
66
66
66
66
66
66
ENDCHAR
STARTCHAR C035
ENCODING 29
SWIDTH 617 0
DWIDTH 9 0
BBX 8 8 0 0
BITMAP
0c
0c
ff
18
18
ff
30
30
ENDCHAR
STARTCHAR C036
ENCODING 30
SWIDTH 617 0
DWIDTH 9 0
BBX 8 10 0 -1
BITMAP
1e
33
30
30
7c
30
30
f8
bf
e0
ENDCHAR
STARTCHAR C037
ENCODING 31
SWIDTH 617 0
DWIDTH 9 0
BBX 3 3 3 3
BITMAP
40
e0
40
ENDCHAR
STARTCHAR space
ENCODING 32
SWIDTH 617 0
DWIDTH 9 0
BBX 0 0 0 0
BITMAP
ENDCHAR
STARTCHAR exclam
ENCODING 33
SWIDTH 617 0
DWIDTH 9 0
BBX 2 10 3 0
BITMAP
c0
c0
c0
c0
c0
c0
c0
c0
00
c0
ENDCHAR
STARTCHAR quotedbl
ENCODING 34
SWIDTH 617 0
DWIDTH 9 0
BBX 5 3 2 7
BITMAP
d8
d8
d8
ENDCHAR
STARTCHAR numbersign
ENCODING 35
SWIDTH 617 0
DWIDTH 9 0
BBX 7 8 1 1
BITMAP
6c
6c
fe
6c
6c
fe
6c
6c
ENDCHAR
STARTCHAR dollar
ENCODING 36
SWIDTH 617 0
DWIDTH 9 0
BBX 7 11 1 -1
BITMAP
10
7c
d6
d0
f0
7c
1e
16
d6
7c
10
ENDCHAR
STARTCHAR percent
ENCODING 37
SWIDTH 617 0
DWIDTH 9 0
BBX 8 10 0 0
BITMAP
43
e6
e6
4c
18
18
32
67
67
c2
ENDCHAR
STARTCHAR ampersand
ENCODING 38
SWIDTH 617 0
DWIDTH 9 0
BBX 8 10 0 0
BITMAP
38
6c
6c
78
30
79
cf
c6
ce
7b
ENDCHAR
STARTCHAR apostrophe
ENCODING 39
SWIDTH 617 0
DWIDTH 9 0
BBX 2 4 3 6
BITMAP
c0
c0
c0
c0
ENDCHAR
STARTCHAR parenleft
ENCODING 40
SWIDTH 617 0
DWIDTH 9 0
BBX 5 12 2 -1
BITMAP
18
30
60
60
c0
c0
c0
c0
60
60
30
18
ENDCHAR
STARTCHAR parenright
ENCODING 41
SWIDTH 617 0
DWIDTH 9 0
BBX 5 12 2 -1
BITMAP
c0
60
30
30
18
18
18
18
30
30
60
c0
ENDCHAR
STARTCHAR asterisk
ENCODING 42
SWIDTH 617 0
DWIDTH 9 0
BBX 7 5 1 2
BITMAP
6c
38
fe
38
6c
ENDCHAR
STARTCHAR plus
ENCODING 43
SWIDTH 617 0
DWIDTH 9 0
BBX 8 7 0 1
BITMAP
18
18
18
ff
18
18
18
ENDCHAR
STARTCHAR comma
ENCODING 44
SWIDTH 617 0
DWIDTH 9 0
BBX 3 5 3 -3
BITMAP
e0
e0
60
60
c0
ENDCHAR
STARTCHAR minus
ENCODING 45
SWIDTH 617 0
DWIDTH 9 0
BBX 8 1 0 4
BITMAP
ff
ENDCHAR
STARTCHAR period
ENCODING 46
SWIDTH 617 0
DWIDTH 9 0
BBX 4 3 2 -1
BITMAP
60
f0
60
ENDCHAR
STARTCHAR slash
ENCODING 47
SWIDTH 617 0
DWIDTH 9 0
BBX 8 10 0 0
BITMAP
03
06
06
0c
18
18
30
60
60
c0
ENDCHAR
STARTCHAR 0
ENCODING 48
SWIDTH 617 0
DWIDTH 9 0
BBX 8 10 0 0
BITMAP
18
3c
66
c3
c3
c3
c3
66
3c
18
ENDCHAR
STARTCHAR 1
ENCODING 49
SWIDTH 617 0
DWIDTH 9 0
BBX 6 10 1 0
BITMAP
30
70
f0
30
30
30
30
30
30
fc
ENDCHAR
STARTCHAR 2
ENCODING 50
SWIDTH 617 0
DWIDTH 9 0
BBX 8 10 0 0
BITMAP
3c
66
c3
03
06
0c
18
30
60
ff
ENDCHAR
STARTCHAR 3
ENCODING 51
SWIDTH 617 0
DWIDTH 9 0
BBX 8 10 0 0
BITMAP
7c
c6
03
06
1c
06
03
03
c6
7c
ENDCHAR
STARTCHAR 4
ENCODING 52
SWIDTH 617 0
DWIDTH 9 0
BBX 8 10 0 0
BITMAP
06
0e
1e
36
66
c6
ff
06
06
06
ENDCHAR
STARTCHAR 5
ENCODING 53
SWIDTH 617 0
DWIDTH 9 0
BBX 8 10 0 0
BITMAP
fe
c0
c0
dc
e6
03
03
c3
66
3c
ENDCHAR
STARTCHAR 6
ENCODING 54
SWIDTH 617 0
DWIDTH 9 0
BBX 8 10 0 0
BITMAP
3c
66
c2
c0
dc
e6
c3
c3
66
3c
ENDCHAR
STARTCHAR 7
ENCODING 55
SWIDTH 617 0
DWIDTH 9 0
BBX 8 10 0 0
BITMAP
ff
03
03
06
0c
0c
18
18
18
18
ENDCHAR
STARTCHAR 8
ENCODING 56
SWIDTH 617 0
DWIDTH 9 0
BBX 8 10 0 0
BITMAP
3c
66
c3
66
3c
66
c3
c3
66
3c
ENDCHAR
STARTCHAR 9
ENCODING 57
SWIDTH 617 0
DWIDTH 9 0
BBX 8 10 0 0
BITMAP
3c
66
c3
c3
67
3b
03
43
66
3c
ENDCHAR
STARTCHAR colon
ENCODING 58
SWIDTH 617 0
DWIDTH 9 0
BBX 4 8 2 -1
BITMAP
60
f0
60
00
00
60
f0
60
ENDCHAR
STARTCHAR semicolon
ENCODING 59
SWIDTH 617 0
DWIDTH 9 0
BBX 4 10 2 -3
BITMAP
60
f0
60
00
00
70
70
30
30
60
ENDCHAR
STARTCHAR less
ENCODING 60
SWIDTH 617 0
DWIDTH 9 0
BBX 6 10 1 0
BITMAP
0c
18
30
60
c0
c0
60
30
18
0c
ENDCHAR
STARTCHAR equal
ENCODING 61
SWIDTH 617 0
DWIDTH 9 0
BBX 8 4 0 2
BITMAP
ff
00
00
ff
ENDCHAR
STARTCHAR greater
ENCODING 62
SWIDTH 617 0
DWIDTH 9 0
BBX 6 10 1 0
BITMAP
c0
60
30
18
0c
0c
18
30
60
c0
ENDCHAR
STARTCHAR question
ENCODING 63
SWIDTH 617 0
DWIDTH 9 0
BBX 7 10 1 0
BITMAP
7c
c6
c6
06
0c
18
30
00
30
30
ENDCHAR
STARTCHAR at
ENCODING 64
SWIDTH 617 0
DWIDTH 9 0
BBX 8 10 0 0
BITMAP
3c
66
c3
cf
db
db
ce
c0
63
3e
ENDCHAR
STARTCHAR A
ENCODING 65
SWIDTH 617 0
DWIDTH 9 0
BBX 8 10 0 0
BITMAP
18
3c
66
c3
c3
c3
ff
c3
c3
c3
ENDCHAR
STARTCHAR B
ENCODING 66
SWIDTH 617 0
DWIDTH 9 0
BBX 8 10 0 0
BITMAP
fc
c6
c3
c6
fc
c6
c3
c3
c6
fc
ENDCHAR
STARTCHAR C
ENCODING 67
SWIDTH 617 0
DWIDTH 9 0
BBX 8 10 0 0
BITMAP
3e
63
c1
c0
c0
c0
c0
c1
63
3e
ENDCHAR
STARTCHAR D
ENCODING 68
SWIDTH 617 0
DWIDTH 9 0
BBX 8 10 0 0
BITMAP
fc
c6
c3
c3
c3
c3
c3
c3
c6
fc
ENDCHAR
STARTCHAR E
ENCODING 69
SWIDTH 617 0
DWIDTH 9 0
BBX 7 10 1 0
BITMAP
fe
c0
c0
c0
fc
c0
c0
c0
c0
fe
ENDCHAR
STARTCHAR F
ENCODING 70
SWIDTH 617 0
DWIDTH 9 0
BBX 8 10 0 0
BITMAP
ff
c0
c0
c0
fc
c0
c0
c0
c0
c0
ENDCHAR
STARTCHAR G
ENCODING 71
SWIDTH 617 0
DWIDTH 9 0
BBX 8 10 0 0
BITMAP
3e
63
c0
c0
c0
c7
c3
c3
63
3e
ENDCHAR
STARTCHAR H
ENCODING 72
SWIDTH 617 0
DWIDTH 9 0
BBX 8 10 0 0
BITMAP
c3
c3
c3
c3
ff
c3
c3
c3
c3
c3
ENDCHAR
STARTCHAR I
ENCODING 73
SWIDTH 617 0
DWIDTH 9 0
BBX 6 10 1 0
BITMAP
fc
30
30
30
30
30
30
30
30
fc
ENDCHAR
STARTCHAR J
ENCODING 74
SWIDTH 617 0
DWIDTH 9 0
BBX 6 10 1 0
BITMAP
3c
0c
0c
0c
0c
0c
0c
8c
d8
70
ENDCHAR
STARTCHAR K
ENCODING 75
SWIDTH 617 0
DWIDTH 9 0
BBX 8 10 0 0
BITMAP
c3
c6
cc
d8
f0
f0
d8
cc
c6
c3
ENDCHAR
STARTCHAR L
ENCODING 76
SWIDTH 617 0
DWIDTH 9 0
BBX 7 10 1 0
BITMAP
c0
c0
c0
c0
c0
c0
c0
c0
c0
fe
ENDCHAR
STARTCHAR M
ENCODING 77
SWIDTH 617 0
DWIDTH 9 0
BBX 8 10 0 0
BITMAP
c3
e7
ff
db
db
db
c3
c3
c3
c3
ENDCHAR
STARTCHAR N
ENCODING 78
SWIDTH 617 0
DWIDTH 9 0
BBX 8 10 0 0
BITMAP
c3
e3
f3
f3
db
db
cf
c7
c7
c3
ENDCHAR
STARTCHAR O
ENCODING 79
SWIDTH 617 0
DWIDTH 9 0
BBX 8 10 0 0
BITMAP
3c
66
c3
c3
c3
c3
c3
c3
66
3c
ENDCHAR
STARTCHAR P
ENCODING 80
SWIDTH 617 0
DWIDTH 9 0
BBX 8 10 0 0
BITMAP
fe
c3
c3
c3
fe
c0
c0
c0
c0
c0
ENDCHAR
STARTCHAR Q
ENCODING 81
SWIDTH 617 0
DWIDTH 9 0
BBX 8 10 0 0
BITMAP
3c
66
c3
c3
c3
c3
db
cf
66
3d
ENDCHAR
STARTCHAR R
ENCODING 82
SWIDTH 617 0
DWIDTH 9 0
BBX 8 10 0 0
BITMAP
fe
c3
c3
c3
fe
f8
cc
c6
c3
c3
ENDCHAR
STARTCHAR S
ENCODING 83
SWIDTH 617 0
DWIDTH 9 0
BBX 8 10 0 0
BITMAP
7e
c3
c0
c0
7e
03
03
03
c3
7e
ENDCHAR
STARTCHAR T
ENCODING 84
SWIDTH 617 0
DWIDTH 9 0
BBX 8 10 0 0
BITMAP
ff
18
18
18
18
18
18
18
18
18
ENDCHAR
STARTCHAR U
ENCODING 85
SWIDTH 617 0
DWIDTH 9 0
BBX 8 10 0 0
BITMAP
c3
c3
c3
c3
c3
c3
c3
c3
66
3c
ENDCHAR
STARTCHAR V
ENCODING 86
SWIDTH 617 0
DWIDTH 9 0
BBX 8 10 0 0
BITMAP
c3
c3
c3
66
66
66
3c
3c
18
18
ENDCHAR
STARTCHAR W
ENCODING 87
SWIDTH 617 0
DWIDTH 9 0
BBX 8 10 0 0
BITMAP
c3
c3
c3
c3
db
db
db
ff
e7
c3
ENDCHAR
STARTCHAR X
ENCODING 88
SWIDTH 617 0
DWIDTH 9 0
BBX 8 10 0 0
BITMAP
c3
c3
66
3c
18
18
3c
66
c3
c3
ENDCHAR
STARTCHAR Y
ENCODING 89
SWIDTH 617 0
DWIDTH 9 0
BBX 8 10 0 0
BITMAP
c3
c3
66
3c
18
18
18
18
18
18
ENDCHAR
STARTCHAR Z
ENCODING 90
SWIDTH 617 0
DWIDTH 9 0
BBX 7 10 1 0
BITMAP
fe
06
06
0c
18
30
60
c0
c0
fe
ENDCHAR
STARTCHAR bracketleft
ENCODING 91
SWIDTH 617 0
DWIDTH 9 0
BBX 5 12 2 -1
BITMAP
f8
c0
c0
c0
c0
c0
c0
c0
c0
c0
c0
f8
ENDCHAR
STARTCHAR backslash
ENCODING 92
SWIDTH 617 0
DWIDTH 9 0
BBX 8 10 0 0
BITMAP
c0
60
60
30
18
18
0c
06
06
03
ENDCHAR
STARTCHAR bracketright
ENCODING 93
SWIDTH 617 0
DWIDTH 9 0
BBX 5 12 2 -1
BITMAP
f8
18
18
18
18
18
18
18
18
18
18
f8
ENDCHAR
STARTCHAR asciicircum
ENCODING 94
SWIDTH 617 0
DWIDTH 9 0
BBX 6 4 1 6
BITMAP
30
78
cc
84
ENDCHAR
STARTCHAR underscore
ENCODING 95
SWIDTH 617 0
DWIDTH 9 0
BBX 8 1 0 -1
BITMAP
ff
ENDCHAR
STARTCHAR grave
ENCODING 96
SWIDTH 617 0
DWIDTH 9 0
BBX 4 3 2 8
BITMAP
c0
60
30
ENDCHAR
STARTCHAR a
ENCODING 97
SWIDTH 617 0
DWIDTH 9 0
BBX 8 7 0 0
BITMAP
3e
63
03
7f
c3
c7
7b
ENDCHAR
STARTCHAR b
ENCODING 98
SWIDTH 617 0
DWIDTH 9 0
BBX 8 10 0 0
BITMAP
c0
c0
c0
dc
e6
c3
c3
c3
e6
dc
ENDCHAR
STARTCHAR c
ENCODING 99
SWIDTH 617 0
DWIDTH 9 0
BBX 8 7 0 0
BITMAP
3e
63
c0
c0
c0
63
3e
ENDCHAR
STARTCHAR d
ENCODING 100
SWIDTH 617 0
DWIDTH 9 0
BBX 8 10 0 0
BITMAP
03
03
03
3b
67
c3
c3
c3
67
3b
ENDCHAR
STARTCHAR e
ENCODING 101
SWIDTH 617 0
DWIDTH 9 0
BBX 8 7 0 0
BITMAP
3c
66
c3
ff
c0
63
3e
ENDCHAR
STARTCHAR f
ENCODING 102
SWIDTH 617 0
DWIDTH 9 0
BBX 8 10 0 0
BITMAP
1e
33
33
30
30
fc
30
30
30
30
ENDCHAR
STARTCHAR g
ENCODING 103
SWIDTH 617 0
DWIDTH 9 0
BBX 8 10 0 -3
BITMAP
7d
c7
c6
c6
7c
c0
7e
c3
c3
7e
ENDCHAR
STARTCHAR h
ENCODING 104
SWIDTH 617 0
DWIDTH 9 0
BBX 8 10 0 0
BITMAP
c0
c0
c0
dc
e6
c3
c3
c3
c3
c3
ENDCHAR
STARTCHAR i
ENCODING 105
SWIDTH 617 0
DWIDTH 9 0
BBX 6 10 1 0
BITMAP
30
30
00
70
30
30
30
30
30
fc
ENDCHAR
STARTCHAR j
ENCODING 106
SWIDTH 617 0
DWIDTH 9 0
BBX 7 13 1 -3
BITMAP
06
06
00
1e
06
06
06
06
06
c6
c6
c6
7c
ENDCHAR
STARTCHAR k
ENCODING 107
SWIDTH 617 0
DWIDTH 9 0
BBX 7 10 1 0
BITMAP
c0
c0
c0
cc
d8
f0
f0
d8
cc
c6
ENDCHAR
STARTCHAR l
ENCODING 108
SWIDTH 617 0
DWIDTH 9 0
BBX 6 10 1 0
BITMAP
70
30
30
30
30
30
30
30
30
fc
ENDCHAR
STARTCHAR m
ENCODING 109
SWIDTH 617 0
DWIDTH 9 0
BBX 8 7 0 0
BITMAP
b6
db
db
db
db
db
db
ENDCHAR
STARTCHAR n
ENCODING 110
SWIDTH 617 0
DWIDTH 9 0
BBX 8 7 0 0
BITMAP
dc
e6
c3
c3
c3
c3
c3
ENDCHAR
STARTCHAR o
ENCODING 111
SWIDTH 617 0
DWIDTH 9 0
BBX 8 7 0 0
BITMAP
3c
66
c3
c3
c3
66
3c
ENDCHAR
STARTCHAR p
ENCODING 112
SWIDTH 617 0
DWIDTH 9 0
BBX 8 10 0 -3
BITMAP
dc
e6
c3
c3
c3
e6
dc
c0
c0
c0
ENDCHAR
STARTCHAR q
ENCODING 113
SWIDTH 617 0
DWIDTH 9 0
BBX 8 10 0 -3
BITMAP
3b
67
c3
c3
c3
67
3b
03
03
03
ENDCHAR
STARTCHAR r
ENCODING 114
SWIDTH 617 0
DWIDTH 9 0
BBX 8 7 0 0
BITMAP
de
73
60
60
60
60
60
ENDCHAR
STARTCHAR s
ENCODING 115
SWIDTH 617 0
DWIDTH 9 0
BBX 8 7 0 0
BITMAP
7e
c3
c0
7e
03
c3
7e
ENDCHAR
STARTCHAR t
ENCODING 116
SWIDTH 617 0
DWIDTH 9 0
BBX 8 9 0 0
BITMAP
30
30
fc
30
30
30
30
33
1e
ENDCHAR
STARTCHAR u
ENCODING 117
SWIDTH 617 0
DWIDTH 9 0
BBX 8 7 0 0
BITMAP
c3
c3
c3
c3
c3
67
3b
ENDCHAR
STARTCHAR v
ENCODING 118
SWIDTH 617 0
DWIDTH 9 0
BBX 8 7 0 0
BITMAP
c3
c3
66
66
3c
3c
18
ENDCHAR
STARTCHAR w
ENCODING 119
SWIDTH 617 0
DWIDTH 9 0
BBX 8 7 0 0
BITMAP
c3
c3
db
db
db
ff
66
ENDCHAR
STARTCHAR x
ENCODING 120
SWIDTH 617 0
DWIDTH 9 0
BBX 8 7 0 0
BITMAP
c3
66
3c
18
3c
66
c3
ENDCHAR
STARTCHAR y
ENCODING 121
SWIDTH 617 0
DWIDTH 9 0
BBX 8 10 0 -3
BITMAP
c3
c3
c3
c3
c3
67
3b
03
c6
7c
ENDCHAR
STARTCHAR z
ENCODING 122
SWIDTH 617 0
DWIDTH 9 0
BBX 6 7 1 0
BITMAP
fc
0c
18
30
60
c0
fc
ENDCHAR
STARTCHAR braceleft
ENCODING 123
SWIDTH 617 0
DWIDTH 9 0
BBX 5 12 2 -1
BITMAP
38
60
60
60
60
c0
c0
60
60
60
60
38
ENDCHAR
STARTCHAR bar
ENCODING 124
SWIDTH 617 0
DWIDTH 9 0
BBX 2 10 3 0
BITMAP
c0
c0
c0
c0
c0
c0
c0
c0
c0
c0
ENDCHAR
STARTCHAR braceright
ENCODING 125
SWIDTH 617 0
DWIDTH 9 0
BBX 5 12 2 -1
BITMAP
e0
30
30
30
30
18
18
30
30
30
30
e0
ENDCHAR
STARTCHAR asciitilde
ENCODING 126
SWIDTH 617 0
DWIDTH 9 0
BBX 8 3 0 7
BITMAP
73
db
ce
ENDCHAR
STARTCHAR nobreakspace
ENCODING 160
SWIDTH 617 0
DWIDTH 9 0
BBX 0 0 0 0
BITMAP
ENDCHAR
STARTCHAR exclamdown
ENCODING 161
SWIDTH 617 0
DWIDTH 9 0
BBX 3 4 3 6
BITMAP
60
c0
e0
e0
ENDCHAR
STARTCHAR cent
ENCODING 162
SWIDTH 617 0
DWIDTH 9 0
BBX 3 4 3 6
BITMAP
e0
e0
60
c0
ENDCHAR
STARTCHAR sterling
ENCODING 163
SWIDTH 617 0
DWIDTH 9 0
BBX 8 10 0 -1
BITMAP
1e
33
30
30
7c
30
30
f8
bf
e0
ENDCHAR
STARTCHAR brokenbar
ENCODING 166
SWIDTH 617 0
DWIDTH 9 0
BBX 2 11 4 -1
BITMAP
c0
c0
c0
c0
c0
00
00
c0
c0
c0
c0
ENDCHAR
STARTCHAR section
ENCODING 167
SWIDTH 617 0
DWIDTH 9 0
BBX 6 11 1 -1
BITMAP
78
cc
c0
78
cc
cc
cc
78
0c
cc
78
ENDCHAR
STARTCHAR diaeresis
ENCODING 168
SWIDTH 617 0
DWIDTH 9 0
BBX 6 2 1 9
BITMAP
cc
cc
ENDCHAR
STARTCHAR copyright
ENCODING 169
SWIDTH 617 0
DWIDTH 9 0
BBX 8 11 0 0
BITMAP
3c
7e
c3
bd
a5
a1
a5
bd
c3
7e
3c
ENDCHAR
STARTCHAR guillemotleft
ENCODING 171
SWIDTH 617 0
DWIDTH 9 0
BBX 8 8 0 1
BITMAP
1b
36
6c
d8
d8
6c
36
1b
ENDCHAR
STARTCHAR notsign
ENCODING 172
SWIDTH 617 0
DWIDTH 9 0
BBX 7 5 1 2
BITMAP
fe
fe
06
06
06
ENDCHAR
STARTCHAR hyphen
ENCODING 173
SWIDTH 617 0
DWIDTH 9 0
BBX 6 1 1 4
BITMAP
fc
ENDCHAR
STARTCHAR macron
ENCODING 175
SWIDTH 617 0
DWIDTH 9 0
BBX 9 1 0 4
BITMAP
ff80
ENDCHAR
STARTCHAR degree
ENCODING 176
SWIDTH 617 0
DWIDTH 9 0
BBX 6 4 2 6
BITMAP
78
cc
cc
78
ENDCHAR
STARTCHAR plusminus
ENCODING 177
SWIDTH 617 0
DWIDTH 9 0
BBX 8 10 0 0
BITMAP
18
18
18
ff
ff
18
18
18
ff
ff
ENDCHAR
STARTCHAR twosuperior
ENCODING 178
SWIDTH 617 0
DWIDTH 9 0
BBX 5 7 1 4
BITMAP
70
98
18
30
60
c0
f8
ENDCHAR
STARTCHAR threesuperior
ENCODING 179
SWIDTH 617 0
DWIDTH 9 0
BBX 5 7 1 4
BITMAP
70
98
18
30
18
98
70
ENDCHAR
STARTCHAR acute
ENCODING 180
SWIDTH 617 0
DWIDTH 9 0
BBX 4 3 2 8
BITMAP
30
60
c0
ENDCHAR
STARTCHAR mu
ENCODING 181
SWIDTH 617 0
DWIDTH 9 0
BBX 8 3 0 8
BITMAP
0c
db
f3
ENDCHAR
STARTCHAR paragraph
ENCODING 182
SWIDTH 617 0
DWIDTH 9 0
BBX 9 10 0 0
BITMAP
6600
cf00
9980
1980
1980
1980
1f80
1980
1980
1980
ENDCHAR
STARTCHAR periodcentered
ENCODING 183
SWIDTH 617 0
DWIDTH 9 0
BBX 3 3 3 3
BITMAP
40
e0
40
ENDCHAR
STARTCHAR cedilla
ENCODING 184
SWIDTH 617 0
DWIDTH 9 0
BBX 9 10 0 0
BITMAP
7f80
d800
9800
1800
1f00
1800
1800
1800
1800
1f80
ENDCHAR
STARTCHAR onesuperior
ENCODING 185
SWIDTH 617 0
DWIDTH 9 0
BBX 9 10 0 0
BITMAP
7980
d980
9980
1980
1f80
1980
1980
1980
1980
1980
ENDCHAR
STARTCHAR masculine
ENCODING 186
SWIDTH 617 0
DWIDTH 9 0
BBX 9 10 0 0
BITMAP
7f80
c600
8600
0600
0600
0600
0600
0600
0600
1f80
ENDCHAR
STARTCHAR guillemotright
ENCODING 187
SWIDTH 617 0
DWIDTH 9 0
BBX 8 8 0 1
BITMAP
d8
6c
36
1b
1b
36
6c
d8
ENDCHAR
STARTCHAR onequarter
ENCODING 188
SWIDTH 617 0
DWIDTH 9 0
BBX 9 10 0 0
BITMAP
6600
cf00
9980
1980
1980
1980
1980
1980
0f00
0600
ENDCHAR
STARTCHAR onehalf
ENCODING 189
SWIDTH 617 0
DWIDTH 9 0
BBX 8 11 0 0
BITMAP
60
e0
60
60
6e
73
f3
06
0c
18
1f
ENDCHAR
STARTCHAR threequarters
ENCODING 190
SWIDTH 617 0
DWIDTH 9 0
BBX 9 10 0 0
BITMAP
7980
d980
9980
0f00
0600
0600
0600
0600
0600
0600
ENDCHAR
STARTCHAR questiondown
ENCODING 191
SWIDTH 617 0
DWIDTH 9 0
BBX 9 10 0 0
BITMAP
6600
cf00
9980
1980
1980
1980
1980
0f00
0f00
1980
ENDCHAR
STARTCHAR Agrave
ENCODING 192
SWIDTH 617 0
DWIDTH 9 0
BBX 8 11 0 0
BITMAP
0c
db
f3
00
18
18
18
18
18
1b
0e
ENDCHAR
STARTCHAR Aacute
ENCODING 193
SWIDTH 617 0
DWIDTH 9 0
BBX 8 10 0 0
BITMAP
18
3c
66
c3
c3
c3
ff
c3
c3
c3
ENDCHAR
STARTCHAR Acircumflex
ENCODING 194
SWIDTH 617 0
DWIDTH 9 0
BBX 8 10 0 0
BITMAP
fc
c6
c3
c6
fc
c6
c3
c3
c6
fc
ENDCHAR
STARTCHAR Atilde
ENCODING 195
SWIDTH 617 0
DWIDTH 9 0
BBX 8 10 0 0
BITMAP
ff
c0
c0
c0
c0
c0
c0
c0
c0
c0
ENDCHAR
STARTCHAR Adiaeresis
ENCODING 196
SWIDTH 617 0
DWIDTH 9 0
BBX 8 10 0 0
BITMAP
18
18
3c
3c
66
66
66
c3
c3
ff
ENDCHAR
STARTCHAR Aring
ENCODING 197
SWIDTH 617 0
DWIDTH 9 0
BBX 7 10 1 0
BITMAP
fe
c0
c0
c0
fc
c0
c0
c0
c0
fe
ENDCHAR
STARTCHAR AE
ENCODING 198
SWIDTH 617 0
DWIDTH 9 0
BBX 7 10 1 0
BITMAP
fe
06
06
0c
18
30
60
c0
c0
fe
ENDCHAR
STARTCHAR Ccedilla
ENCODING 199
SWIDTH 617 0
DWIDTH 9 0
BBX 8 10 0 0
BITMAP
c3
c3
c3
c3
ff
c3
c3
c3
c3
c3
ENDCHAR
STARTCHAR Egrave
ENCODING 200
SWIDTH 617 0
DWIDTH 9 0
BBX 8 10 0 0
BITMAP
3c
66
c3
c3
ff
c3
c3
c3
66
3c
ENDCHAR
STARTCHAR Eacute
ENCODING 201
SWIDTH 617 0
DWIDTH 9 0
BBX 6 10 1 0
BITMAP
fc
30
30
30
30
30
30
30
30
fc
ENDCHAR
STARTCHAR Ecircumflex
ENCODING 202
SWIDTH 617 0
DWIDTH 9 0
BBX 8 10 0 0
BITMAP
c3
c6
cc
d8
f0
f0
d8
cc
c6
c3
ENDCHAR
STARTCHAR Ediaeresis
ENCODING 203
SWIDTH 617 0
DWIDTH 9 0
BBX 8 10 0 0
BITMAP
18
18
3c
3c
66
66
66
c3
c3
c3
ENDCHAR
STARTCHAR Igrave
ENCODING 204
SWIDTH 617 0
DWIDTH 9 0
BBX 8 10 0 0
BITMAP
c3
e7
ff
db
db
db
c3
c3
c3
c3
ENDCHAR
STARTCHAR Iacute
ENCODING 205
SWIDTH 617 0
DWIDTH 9 0
BBX 8 10 0 0
BITMAP
c3
e3
f3
f3
db
db
cf
c7
c7
c3
ENDCHAR
STARTCHAR Icircumflex
ENCODING 206
SWIDTH 617 0
DWIDTH 9 0
BBX 8 10 0 0
BITMAP
ff
00
00
00
7e
00
00
00
00
ff
ENDCHAR
STARTCHAR Idiaeresis
ENCODING 207
SWIDTH 617 0
DWIDTH 9 0
BBX 8 10 0 0
BITMAP
3c
66
c3
c3
c3
c3
c3
c3
66
3c
ENDCHAR
STARTCHAR ETH
ENCODING 208
SWIDTH 617 0
DWIDTH 9 0
BBX 8 10 0 0
BITMAP
ff
66
66
66
66
66
66
66
66
66
ENDCHAR
STARTCHAR Ntilde
ENCODING 209
SWIDTH 617 0
DWIDTH 9 0
BBX 8 10 0 0
BITMAP
fe
c3
c3
c3
fe
c0
c0
c0
c0
c0
ENDCHAR
STARTCHAR Oacute
ENCODING 211
SWIDTH 617 0
DWIDTH 9 0
BBX 8 10 0 0
BITMAP
ff
c0
60
30
18
18
30
60
c0
ff
ENDCHAR
STARTCHAR Ocircumflex
ENCODING 212
SWIDTH 617 0
DWIDTH 9 0
BBX 8 10 0 0
BITMAP
ff
18
18
18
18
18
18
18
18
18
ENDCHAR
STARTCHAR Otilde
ENCODING 213
SWIDTH 617 0
DWIDTH 9 0
BBX 8 10 0 0
BITMAP
c3
c3
66
3c
18
18
18
18
18
18
ENDCHAR
STARTCHAR Odiaeresis
ENCODING 214
SWIDTH 617 0
DWIDTH 9 0
BBX 8 10 0 0
BITMAP
18
7e
db
db
db
db
db
db
7e
18
ENDCHAR
STARTCHAR multiply
ENCODING 215
SWIDTH 617 0
DWIDTH 9 0
BBX 8 10 0 0
BITMAP
c3
c3
66
3c
18
18
3c
66
c3
c3
ENDCHAR
STARTCHAR Ooblique
ENCODING 216
SWIDTH 617 0
DWIDTH 9 0
BBX 8 10 0 0
BITMAP
db
db
db
db
db
db
7e
18
18
18
ENDCHAR
STARTCHAR Ugrave
ENCODING 217
SWIDTH 617 0
DWIDTH 9 0
BBX 8 10 0 0
BITMAP
3c
66
c3
c3
c3
c3
c3
66
66
e7
ENDCHAR
STARTCHAR Uacute
ENCODING 218
SWIDTH 617 0
DWIDTH 9 0
BBX 6 11 1 0
BITMAP
cc
cc
00
fc
30
30
30
30
30
30
fc
ENDCHAR
STARTCHAR Ucircumflex
ENCODING 219
SWIDTH 617 0
DWIDTH 9 0
BBX 8 11 0 0
BITMAP
c3
c3
00
c3
66
3c
18
18
18
18
18
ENDCHAR
STARTCHAR Udiaeresis
ENCODING 220
SWIDTH 617 0
DWIDTH 9 0
BBX 8 11 0 0
BITMAP
06
0c
18
00
7b
c7
c3
c3
c7
cb
73
ENDCHAR
STARTCHAR Yacute
ENCODING 221
SWIDTH 617 0
DWIDTH 9 0
BBX 8 11 0 0
BITMAP
06
0c
18
00
7e
c3
c0
7c
c0
c3
7e
ENDCHAR
STARTCHAR THORN
ENCODING 222
SWIDTH 617 0
DWIDTH 9 0
BBX 8 14 0 -3
BITMAP
06
0c
18
00
dc
e6
c3
c3
c3
c3
c3
03
03
03
ENDCHAR
STARTCHAR ssharp
ENCODING 223
SWIDTH 617 0
DWIDTH 9 0
BBX 5 11 2 0
BITMAP
30
60
c0
00
c0
c0
c0
c0
c0
d8
70
ENDCHAR
STARTCHAR agrave
ENCODING 224
SWIDTH 617 0
DWIDTH 9 0
BBX 8 11 0 0
BITMAP
0c
db
f3
00
c3
c3
c3
c3
c3
66
3c
ENDCHAR
STARTCHAR aacute
ENCODING 225
SWIDTH 617 0
DWIDTH 9 0
BBX 8 7 0 0
BITMAP
7b
c7
c3
c3
c7
cb
73
ENDCHAR
STARTCHAR acircumflex
ENCODING 226
SWIDTH 617 0
DWIDTH 9 0
BBX 8 13 0 -3
BITMAP
3c
66
c6
c6
fc
c6
c3
c3
e3
de
c0
c0
c0
ENDCHAR
STARTCHAR atilde
ENCODING 227
SWIDTH 617 0
DWIDTH 9 0
BBX 8 10 0 -3
BITMAP
c3
c3
66
66
3c
3c
18
18
18
18
ENDCHAR
STARTCHAR adiaeresis
ENCODING 228
SWIDTH 617 0
DWIDTH 9 0
BBX 8 10 0 0
BITMAP
7c
c6
60
3c
66
c3
c3
c3
66
3c
ENDCHAR
STARTCHAR aring
ENCODING 229
SWIDTH 617 0
DWIDTH 9 0
BBX 8 7 0 0
BITMAP
7e
c3
c0
7c
c0
c3
7e
ENDCHAR
STARTCHAR ae
ENCODING 230
SWIDTH 617 0
DWIDTH 9 0
BBX 8 13 0 -3
BITMAP
ff
18
30
60
60
c0
c0
c0
c0
7e
03
03
0e
ENDCHAR
STARTCHAR ccedilla
ENCODING 231
SWIDTH 617 0
DWIDTH 9 0
BBX 8 10 0 -3
BITMAP
dc
e6
c3
c3
c3
c3
c3
03
03
03
ENDCHAR
STARTCHAR egrave
ENCODING 232
SWIDTH 617 0
DWIDTH 9 0
BBX 7 10 1 0
BITMAP
38
6c
c6
c6
fe
c6
c6
c6
6c
38
ENDCHAR
STARTCHAR eacute
ENCODING 233
SWIDTH 617 0
DWIDTH 9 0
BBX 5 7 2 0
BITMAP
c0
c0
c0
c0
c0
d8
70
ENDCHAR
STARTCHAR ecircumflex
ENCODING 234
SWIDTH 617 0
DWIDTH 9 0
BBX 7 7 1 0
BITMAP
c6
cc
d8
f0
d8
cc
c6
ENDCHAR
STARTCHAR ediaeresis
ENCODING 235
SWIDTH 617 0
DWIDTH 9 0
BBX 8 10 0 0
BITMAP
7c
c6
03
3b
67
c3
c3
c3
c3
c3
ENDCHAR
STARTCHAR igrave
ENCODING 236
SWIDTH 617 0
DWIDTH 9 0
BBX 8 10 0 -3
BITMAP
c3
c3
c3
c3
c3
e7
fb
c0
c0
c0
ENDCHAR
STARTCHAR iacute
ENCODING 237
SWIDTH 617 0
DWIDTH 9 0
BBX 8 7 0 0
BITMAP
c3
c3
66
66
3c
3c
18
ENDCHAR
STARTCHAR icircumflex
ENCODING 238
SWIDTH 617 0
DWIDTH 9 0
BBX 8 13 0 -3
BITMAP
ff
30
60
60
3c
60
c0
c0
c0
7e
03
03
0e
ENDCHAR
STARTCHAR idiaeresis
ENCODING 239
SWIDTH 617 0
DWIDTH 9 0
BBX 8 7 0 0
BITMAP
3c
66
c3
c3
c3
66
3c
ENDCHAR
STARTCHAR eth
ENCODING 240
SWIDTH 617 0
DWIDTH 9 0
BBX 8 7 0 0
BITMAP
ff
66
66
66
66
66
66
ENDCHAR
STARTCHAR ntilde
ENCODING 241
SWIDTH 617 0
DWIDTH 9 0
BBX 8 10 0 -3
BITMAP
3c
66
c3
c3
c3
e6
fc
c0
c0
c0
ENDCHAR
STARTCHAR ograve
ENCODING 242
SWIDTH 617 0
DWIDTH 9 0
BBX 8 10 0 -3
BITMAP
7e
c3
c0
c0
c0
c0
7e
03
03
0e
ENDCHAR
STARTCHAR oacute
ENCODING 243
SWIDTH 617 0
DWIDTH 9 0
BBX 8 7 0 0
BITMAP
3f
6c
c6
c3
c3
66
3c
ENDCHAR
STARTCHAR ocircumflex
ENCODING 244
SWIDTH 617 0
DWIDTH 9 0
BBX 8 7 0 0
BITMAP
ff
18
18
18
18
1b
0e
ENDCHAR
STARTCHAR otilde
ENCODING 245
SWIDTH 617 0
DWIDTH 9 0
BBX 8 7 0 0
BITMAP
c3
c3
c3
c3
c3
66
3c
ENDCHAR
STARTCHAR odiaeresis
ENCODING 246
SWIDTH 617 0
DWIDTH 9 0
BBX 8 10 0 -3
BITMAP
6e
db
db
db
db
db
7e
18
18
18
ENDCHAR
STARTCHAR division
ENCODING 247
SWIDTH 617 0
DWIDTH 9 0
BBX 8 10 0 -3
BITMAP
c3
c3
66
3c
18
18
3c
66
c3
c3
ENDCHAR
STARTCHAR oslash
ENCODING 248
SWIDTH 617 0
DWIDTH 9 0
BBX 8 10 0 -3
BITMAP
db
db
db
db
db
db
7e
18
18
18
ENDCHAR
STARTCHAR ugrave
ENCODING 249
SWIDTH 617 0
DWIDTH 9 0
BBX 8 7 0 0
BITMAP
c3
db
db
db
db
ff
66
ENDCHAR
STARTCHAR uacute
ENCODING 250
SWIDTH 617 0
DWIDTH 9 0
BBX 8 10 0 0
BITMAP
c3
c3
00
18
18
18
18
18
1b
0e
ENDCHAR
STARTCHAR ucircumflex
ENCODING 251
SWIDTH 617 0
DWIDTH 9 0
BBX 8 10 0 0
BITMAP
c3
c3
00
c3
c3
c3
c3
c3
66
3c
ENDCHAR
STARTCHAR udiaeresis
ENCODING 252
SWIDTH 617 0
DWIDTH 9 0
BBX 8 11 0 0
BITMAP
06
0c
18
00
3c
66
c3
c3
c3
66
3c
ENDCHAR
STARTCHAR yacute
ENCODING 253
SWIDTH 617 0
DWIDTH 9 0
BBX 8 11 0 0
BITMAP
06
0c
18
00
c3
c3
c3
c3
c3
66
3c
ENDCHAR
STARTCHAR thorn
ENCODING 254
SWIDTH 617 0
DWIDTH 9 0
BBX 8 11 0 0
BITMAP
06
0c
18
00
c3
db
db
db
db
ff
66
ENDCHAR
ENDFONT
